<svg width="125" height="101" viewBox="0 0 125 101" fill="none" xmlns="http://www.w3.org/2000/svg">
<circle cx="50" cy="51" r="50" fill="#EAF7FF"/>
<g clip-path="url(#clip0)">
<path d="M36.7684 90.2166C37.745 90.2166 38.5367 89.4256 38.5367 88.45C38.5367 87.4743 37.745 86.6833 36.7684 86.6833C35.7917 86.6833 35 87.4743 35 88.45C35 89.4256 35.7917 90.2166 36.7684 90.2166Z" fill="#707070"/>
<path d="M81.9346 45.4088C82.9093 45.4088 83.6994 44.6194 83.6994 43.6457C83.6994 42.6719 82.9093 41.8826 81.9346 41.8826C80.9599 41.8826 80.1697 42.6719 80.1697 43.6457C80.1697 44.6194 80.9599 45.4088 81.9346 45.4088Z" fill="#707070"/>
<path d="M105.045 21.295C103.627 19.8774 101.74 19.097 99.7338 19.097C97.7275 19.097 95.841 19.8778 94.4224 21.295C91.4937 24.2209 91.4937 28.9817 94.4224 31.9075C95.887 33.3705 97.8101 34.1017 99.7338 34.1017C101.657 34.1017 103.581 33.3701 105.045 31.9075C107.974 28.9815 107.974 24.2208 105.045 21.295ZM102.55 29.414C100.997 30.965 98.4705 30.965 96.9182 29.414C95.3655 27.8631 95.3655 25.3392 96.9182 23.7881C97.6703 23.0366 98.6702 22.6229 99.7338 22.6229C100.797 22.6229 101.797 23.0366 102.55 23.7881C104.102 25.3392 104.102 27.8631 102.55 29.414Z" fill="#707070"/>
<path d="M57.0446 72.8215C56.172 72.3874 55.1128 72.7423 54.6782 73.6139L52.5762 77.8311C51.6622 79.6646 49.8238 80.8907 47.7781 81.0305L45.3333 81.1977C44.9201 81.2253 44.6483 81.0196 44.5226 80.8941C44.3969 80.7685 44.1906 80.4965 44.2187 80.084L44.386 77.6418C44.5261 75.5982 45.7534 73.7616 47.5886 72.8484L51.8098 70.7485C52.6824 70.3144 53.0375 69.256 52.6029 68.3845C52.1686 67.5129 51.1092 67.158 50.2366 67.5921L46.0154 69.692C43.0636 71.1605 41.09 74.1142 40.8646 77.4009L40.6973 79.843C40.6069 81.1613 41.0914 82.4531 42.0265 83.3873C42.8875 84.2475 44.0521 84.7262 45.2614 84.7262C45.3653 84.7262 45.4699 84.7227 45.5743 84.7155L48.0191 84.5483C51.309 84.3233 54.2657 82.3518 55.7356 79.4026L57.8375 75.1856C58.2721 74.3139 57.917 73.2556 57.0446 72.8215Z" fill="#707070"/>
<path d="M123.782 2.00435C122.954 1.18936 121.813 0.763156 120.654 0.838492L119.011 0.943154C104.277 1.88283 90.4884 8.98776 81.1803 20.4363L77.3124 25.1934L67.1904 24.8964C67.1731 24.8959 67.1557 24.8957 67.1387 24.8957C59.1111 24.8957 51.5639 28.0187 45.8874 33.6895L35.5201 44.0467C35.0271 44.5392 34.8704 45.2759 35.1208 45.926C35.3711 46.5763 35.981 47.0185 36.6775 47.054L58.6228 48.1803L57.728 49.2808C57.2772 49.8356 57.2058 50.6072 57.5477 51.2348C57.8915 51.8663 58.2519 52.4878 58.6277 53.0993L53.4235 59.2714C52.9786 59.7991 52.8828 60.5377 53.1779 61.1614C54.3147 63.5611 55.8234 65.7172 57.6628 67.5699C59.5468 69.4679 61.7499 71.0199 64.2105 72.1833C64.451 72.2971 64.7088 72.3527 64.9651 72.3527C65.3626 72.3527 65.7567 72.2186 66.0773 71.9589C67.1984 71.0503 68.491 69.9725 69.7411 68.9305C70.6322 68.1877 71.5438 67.4278 72.3958 66.7271C72.9043 67.0329 73.4192 67.3293 73.9418 67.6133C74.2062 67.7569 74.496 67.8277 74.7848 67.8277C75.1691 67.8277 75.5509 67.7026 75.8669 67.4575L77.0698 66.525L78.2022 88.541C78.2381 89.2368 78.6805 89.8461 79.3312 90.0962C79.5373 90.1752 79.7514 90.2138 79.9641 90.2138C80.4237 90.2138 80.8751 90.0342 81.2123 89.6972L91.5797 79.34C97.2562 73.6691 100.382 66.1295 100.382 58.1097V48.4521L104.472 45.2815C116.729 35.7794 124.194 21.4508 124.953 5.96958L124.995 5.11156C125.052 3.95185 124.61 2.81953 123.782 2.00435ZM40.8224 43.7362L48.3831 36.1829C53.3868 31.1843 60.038 28.4286 67.1132 28.4218L74.511 28.6388L61.3783 44.7912L40.8224 43.7362ZM67.4799 66.2231C66.5586 66.9909 65.6141 67.7783 64.7377 68.4985C63.0424 67.5813 61.5089 66.4369 60.1688 65.0868C58.8708 63.7794 57.766 62.2908 56.8751 60.6509L60.6854 56.132C61.8375 57.6761 63.0985 59.1388 64.4608 60.509C64.4619 60.5101 64.4629 60.511 64.464 60.512C64.4643 60.5124 64.4647 60.5129 64.465 60.5133C64.4656 60.5138 64.4661 60.5141 64.4666 60.5147C65.9771 62.0333 67.6019 63.4269 69.3254 64.6873C68.7168 65.192 68.0933 65.7118 67.4799 66.2231ZM96.8532 58.1097C96.8532 65.1876 94.0943 71.8417 89.0843 76.8467L81.5236 84.4L80.4686 63.8904L96.853 51.1886V58.1097H96.8532ZM121.428 5.79731C120.72 20.2493 113.751 33.6254 102.309 42.4959L74.6301 63.9532C72.3348 62.6133 70.1953 61.0313 68.2373 59.2389L77.5689 49.9165C78.2579 49.2282 78.2579 48.1116 77.5689 47.4231C76.8796 46.7345 75.7622 46.7345 75.0729 47.4231L65.7502 56.7366C64.0361 54.8409 62.5181 52.7782 61.2256 50.5721L83.92 22.6594C92.6093 11.972 105.481 5.33932 119.236 4.46234L120.879 4.35768C121.094 4.34433 121.238 4.4511 121.305 4.51643C121.371 4.58158 121.481 4.72329 121.47 4.93947L121.428 5.79731Z" fill="#707070"/>
</g>
<defs>
<clipPath id="clip0">
<rect width="90" height="89.9111" fill="white" transform="translate(35 0.567627)"/>
</clipPath>
</defs>
</svg>
