<svg width="120" height="100" viewBox="0 0 120 100" fill="none" xmlns="http://www.w3.org/2000/svg">
<circle cx="50" cy="50" r="50" fill="#EAF7FF"/>
<g clip-path="url(#clip0)">
<path d="M115.851 87.4844H111.996V31.5044C111.996 28.8988 109.876 26.7791 107.271 26.7791H98.6531C96.0475 26.7791 93.9278 28.899 93.9278 31.5044V87.4844H84.1381V56.8677C84.1381 54.2621 82.0184 52.1424 79.4128 52.1424H70.7953C68.1897 52.1424 66.0699 54.2623 66.0699 56.8677V87.4844H56.2803V71.6282C56.2803 69.0226 54.1604 66.9029 51.555 66.9029H42.9373C40.3317 66.9029 38.2119 69.0228 38.2119 71.6282V87.4844H34.1486C33.1778 87.4844 32.3908 88.2714 32.3908 89.2422C32.3908 90.2131 33.1778 91 34.1486 91H115.851C116.822 91 117.609 90.2131 117.609 89.2422C117.609 88.2714 116.822 87.4844 115.851 87.4844ZM52.7644 87.4844H41.7274V71.6282C41.7274 70.9611 42.27 70.4185 42.9371 70.4185H51.5546C52.2217 70.4185 52.7644 70.9611 52.7644 71.6282V87.4844ZM80.6223 87.4844H69.5854V56.8677C69.5854 56.2006 70.128 55.658 70.7951 55.658H79.4126C80.0795 55.658 80.6223 56.2006 80.6223 56.8677V87.4844ZM108.48 87.4844H97.4434V31.5044C97.4434 30.8373 97.986 30.2947 98.6531 30.2947H107.271C107.938 30.2947 108.48 30.8373 108.48 31.5044V87.4844Z" fill="#707070"/>
<path d="M111.992 2.84852C112.016 2.36881 111.848 1.88102 111.481 1.51469C111.115 1.14836 110.627 0.979434 110.147 1.00422C110.119 1.00299 110.091 1 110.062 1H99.4276C98.4568 1 97.6698 1.78697 97.6698 2.75781C97.6698 3.72865 98.4568 4.51562 99.4276 4.51562H105.994L88.617 21.893L82.0639 15.3399C81.7343 15.0103 81.2871 14.825 80.821 14.825C80.3548 14.825 79.9076 15.0103 79.578 15.3399L47.978 46.9401C47.2916 47.6265 47.2916 48.7396 47.978 49.4262C48.3213 49.7691 48.7711 49.9407 49.221 49.9407C49.6708 49.9407 50.1208 49.7691 50.4639 49.4258L80.821 19.0686L87.3741 25.6217C88.0605 26.3081 89.1736 26.3081 89.8602 25.6217L108.48 7.0017V12.9449C108.48 13.9157 109.267 14.7027 110.238 14.7027C111.209 14.7027 111.996 13.9157 111.996 12.9449V2.93359C111.996 2.90494 111.993 2.87699 111.992 2.84852Z" fill="#707070"/>
<path d="M43.2961 56.074C44.2669 56.074 45.0539 55.287 45.0539 54.3162C45.0539 53.3453 44.2669 52.5583 43.2961 52.5583C42.3253 52.5583 41.5383 53.3453 41.5383 54.3162C41.5383 55.287 42.3253 56.074 43.2961 56.074Z" fill="#707070"/>
</g>
<defs>
<clipPath id="clip0">
<rect width="90" height="90" fill="white" transform="translate(30 1)"/>
</clipPath>
</defs>
</svg>
