<svg width="119" height="100" viewBox="0 0 119 100" fill="none" xmlns="http://www.w3.org/2000/svg">
<circle cx="50" cy="50" r="50" fill="#EAF7FF"/>
<g clip-path="url(#clip0)">
<path d="M117.969 40.0169L102.641 22.6731C102.308 22.2956 101.828 22.0793 101.324 22.0793H46.6758C46.1721 22.0793 45.6924 22.2956 45.3587 22.6731L30.0309 40.0169C29.5732 40.535 29.4616 41.2731 29.7457 41.9034C29.8527 42.1411 30.0088 42.3464 30.1986 42.5104C30.2023 42.5144 30.2051 42.519 30.2088 42.5232L72.685 90.4087C73.0186 90.7849 73.4973 91 74 91C74.5027 91 74.9814 90.7847 75.315 90.4087L117.791 42.5232C117.795 42.5192 117.798 42.5146 117.801 42.5104C117.991 42.3464 118.147 42.1409 118.254 41.9034C118.538 41.2731 118.427 40.535 117.969 40.0169ZM98.2074 25.5948L90.3955 38.1885L77.8763 25.5948H98.2074ZM86.6657 39.4232H61.3343L74 26.682L86.6657 39.4232ZM70.1237 25.595L57.6045 38.1886L49.7926 25.595H70.1237ZM46.403 26.8001L54.2332 39.4232H35.2474L46.403 26.8001ZM35.277 42.9388H56.0504L70.4005 82.5354L35.277 42.9388ZM77.6647 82.462L87.6909 55.3263C88.0273 54.4155 87.5619 53.4046 86.6513 53.0682C85.7402 52.7314 84.7295 53.197 84.3932 54.1077L74.016 82.1936L59.7898 42.9388H112.723L77.6647 82.462ZM93.7668 39.4232L101.597 26.8001L112.753 39.4232H93.7668Z" fill="#707070"/>
<path d="M74 1C73.0293 1 72.2422 1.78697 72.2422 2.75781V11.8128C72.2422 12.7837 73.0293 13.5706 74 13.5706C74.9707 13.5706 75.7578 12.7837 75.7578 11.8128V2.75781C75.7578 1.78697 74.9707 1 74 1Z" fill="#707070"/>
<path d="M90.007 7.94756C89.3205 7.26113 88.2079 7.26113 87.5209 7.94756L81.1179 14.3504C80.4315 15.0368 80.4315 16.1499 81.1179 16.8363C81.4614 17.1796 81.9112 17.3512 82.361 17.3512C82.8109 17.3512 83.2607 17.1794 83.604 16.8363L90.007 10.4335C90.6934 9.74703 90.6934 8.63398 90.007 7.94756Z" fill="#707070"/>
<path d="M66.5395 14.3504L60.1366 7.94756C59.4504 7.26113 58.3377 7.26113 57.6506 7.94756C56.9641 8.63398 56.9641 9.74703 57.6506 10.4335L64.0536 16.8363C64.3969 17.1796 64.8467 17.3512 65.2965 17.3512C65.7463 17.3512 66.1962 17.1794 66.5395 16.8363C67.2259 16.1499 67.2259 15.0368 66.5395 14.3504Z" fill="#707070"/>
<path d="M88.3138 49.9304C89.2847 49.9304 90.0717 49.1434 90.0717 48.1726C90.0717 47.2018 89.2847 46.4148 88.3138 46.4148C87.343 46.4148 86.556 47.2018 86.556 48.1726C86.556 49.1434 87.343 49.9304 88.3138 49.9304Z" fill="#707070"/>
</g>
<defs>
<clipPath id="clip0">
<rect width="90" height="90" fill="white" transform="translate(29 1)"/>
</clipPath>
</defs>
</svg>
