<svg id="Layer_1" data-name="Layer 1" xmlns="http://www.w3.org/2000/svg" viewBox="0 0 153 24"><defs><style>.cls-1{fill:#ebeef5;}.cls-2{fill:#054df9;}</style></defs><title>Logo AHT web</title><rect class="cls-1" x="19.64" y="8.75" width="6.61" height="15.26"/><circle class="cls-2" cx="15.31" cy="20.74" r="3.27"/><rect class="cls-1" x="45.86" width="6.55" height="24"/><rect class="cls-1" x="29.49" width="6.55" height="24"/><polygon class="cls-1" points="34.95 14.17 43.68 14.17 45.86 8.73 34.95 8.73 34.95 14.17"/><rect class="cls-1" x="61.14" y="0.01" width="6.55" height="24"/><rect class="cls-1" x="54.59" width="12.64" height="5.44"/><polygon class="cls-1" points="74.23 5.44 69.86 5.44 67.68 0 74.23 0 74.23 5.44"/><polygon class="cls-1" points="26.27 0.01 8.07 24.01 0 24.01 18.2 0.01 26.27 0.01"/><polygon class="cls-1" points="100.01 0.01 81.48 0.01 81.48 2.81 89.19 2.81 89.19 23.85 92.31 23.85 92.31 2.81 100.01 2.81 100.01 0.01"/><path class="cls-1" d="M111.83,7.55h0a8.86,8.86,0,0,0-8.64,0,8.16,8.16,0,0,0-3,3.11,9.17,9.17,0,0,0-1.1,4.52,8.86,8.86,0,0,0,1.15,4.54,8.27,8.27,0,0,0,3.19,3.13A9.57,9.57,0,0,0,108.11,24a9.67,9.67,0,0,0,3.77-.72,7.61,7.61,0,0,0,2.9-2.12l.21-.26-1.78-2.05-.3.35a5.4,5.4,0,0,1-2.09,1.52,6.8,6.8,0,0,1-2.65.51,6.71,6.71,0,0,1-3.21-.76,5.47,5.47,0,0,1-2.87-4.18h13.78v-.4c0-.11,0-.22,0-.32a2.36,2.36,0,0,0,0-.37,9.4,9.4,0,0,0-1.08-4.56A7.9,7.9,0,0,0,111.83,7.55Zm-9.73,6.29a6.27,6.27,0,0,1,.62-1.92,5.18,5.18,0,0,1,2-2,5.6,5.6,0,0,1,2.84-.72,5.53,5.53,0,0,1,2.84.72,5.31,5.31,0,0,1,1.93,2,5.87,5.87,0,0,1,.65,1.93Z"/><path class="cls-1" d="M131.34,19a5,5,0,0,1-1.94,1.68,5.91,5.91,0,0,1-2.55.56,6,6,0,0,1-3-.75,5.56,5.56,0,0,1-2.08-2.09,6.49,6.49,0,0,1-.76-3.19A6.49,6.49,0,0,1,121.8,12a5.56,5.56,0,0,1,2.08-2.09,6,6,0,0,1,3-.74,5.9,5.9,0,0,1,2.55.55,4.88,4.88,0,0,1,1.94,1.71l.22.34,2.31-1.57-.19-.32a6.54,6.54,0,0,0-2.84-2.6,9,9,0,0,0-4-.86,9.35,9.35,0,0,0-4.57,1.12,8.19,8.19,0,0,0-3.17,3.09A8.89,8.89,0,0,0,118,15.21a8.86,8.86,0,0,0,1.16,4.54,8.36,8.36,0,0,0,3.17,3.13A9.24,9.24,0,0,0,126.88,24a8.86,8.86,0,0,0,4-.87,6.66,6.66,0,0,0,2.83-2.58l.2-.33-2.3-1.56Z"/><path class="cls-1" d="M152.09,9.75h0a5.89,5.89,0,0,0-2.55-2.49,8.1,8.1,0,0,0-3.7-.82,8.35,8.35,0,0,0-4.31,1.08,6.78,6.78,0,0,0-1.47,1.16V0h-3V23.85h3v-9a6.36,6.36,0,0,1,.66-3,4.48,4.48,0,0,1,1.84-1.87,5.93,5.93,0,0,1,2.87-.66,4.5,4.5,0,0,1,3.36,1.21A5.06,5.06,0,0,1,150,14.11v9.74h3v-10A8.52,8.52,0,0,0,152.09,9.75Z"/></svg>